# xmcd
#
# Track frame offsets: 
#        183
#        12705
#        27335
#        38818
#        52828
#        62725
#        75178
#        91315
#        112608
#        123393
#        136550
#        144760
#        158205
#        171033
#        180105
#        189263
#        202078
#        214340
#
# Disc length: 2979 seconds
#
# Revision: 0
# Processed by: cddbd v1.4PL0 Copyright (c) Steve Scherf et al.
# Submitted via: ExactAudioCopy v0.90a11
#
DISCID=db0ba112
DTITLE=Elvis Presley - Wereldsterren
DYEAR=1900
DGENRE=
TTITLE0=In the ghetto
TTITLE1=It's now or never
TTITLE2=My way
TTITLE3=Are you lonesome tonight
TTITLE4=My boy
TTITLE5=Don't cry daddy
TTITLE6=Always on my mind
TTITLE7=I just can't help believim
TTITLE8=Çrying in the chapel
TTITLE9=Moody blue
TTITLE10=She wears my ring
TTITLE11=Can't help falling in love
TTITLE12=The last farewell
TTITLE13=Love letters
TTITLE14=Wooden heart
TTITLE15=Until it's time for you to go
TTITLE16=Love me tender
TTITLE17=And I love you so
EXTD=
EXTT0=
EXTT1=
EXTT2=
EXTT3=
EXTT4=
EXTT5=
EXTT6=
EXTT7=
EXTT8=
EXTT9=
EXTT10=
EXTT11=
EXTT12=
EXTT13=
EXTT14=
EXTT15=
EXTT16=
EXTT17=
PLAYORDER=
